<?xml version="1.0" standalone="no"?>
<!DOCTYPE svg PUBLIC "-//W3C//DTD SVG 20010904//EN"
 "http://www.w3.org/TR/2001/REC-SVG-20010904/DTD/svg10.dtd">
<svg version="1.0" xmlns="http://www.w3.org/2000/svg"
 width="512.000000pt" height="512.000000pt" viewBox="0 0 512.000000 512.000000"
 preserveAspectRatio="xMidYMid meet">
<metadata>
Created by potrace 1.16, written by Peter Selinger 2001-2019
</metadata>
<g transform="translate(0.000000,512.000000) scale(0.100000,-0.100000)"
fill="#000000" stroke="none">
<path d="M0 2560 l0 -2560 1093 0 c969 1 1089 2 1065 16 -15 8 -32 23 -38 34
-6 11 -10 109 -10 245 0 225 0 226 24 250 47 47 112 43 150 -9 19 -25 21 -43
24 -234 2 -182 0 -211 -15 -242 -10 -19 -29 -40 -43 -47 -21 -10 26 -13 260
-12 257 0 282 1 258 15 -15 8 -32 23 -38 34 -6 11 -10 109 -10 245 0 225 0
226 24 250 47 47 112 43 150 -9 20 -26 21 -41 21 -245 0 -192 -2 -220 -18
-244 -10 -16 -28 -32 -40 -37 -14 -5 88 -9 263 -9 257 0 282 1 258 15 -15 8
-32 23 -38 34 -13 25 -13 455 0 481 29 53 121 61 160 12 19 -24 20 -39 20
-252 0 -243 -3 -261 -54 -281 -12 -5 335 -9 817 -9 l837 -1 0 2560 0 2560
-1492 0 c-1091 -1 -1488 -4 -1473 -12 52 -28 55 -39 55 -256 l0 -204 -29 -29
c-58 -58 -151 -29 -166 53 -3 18 -5 113 -3 210 3 159 5 178 23 198 11 12 29
26 40 31 11 4 -451 8 -1027 8 l-1048 1 0 -2560z m1307 2296 c29 -28 193 -313
200 -347 6 -31 -19 -84 -46 -99 -28 -15 -83 -12 -107 5 -24 16 -199 316 -209
356 -14 58 55 126 115 112 14 -3 35 -15 47 -27z m1729 12 c26 -12 44 -48 44
-86 0 -39 -185 -357 -217 -371 -43 -20 -82 -13 -114 18 -48 49 -41 76 62 257
108 189 103 182 143 192 32 9 46 7 82 -10z m-2250 -709 c87 -50 169 -102 182
-115 24 -27 30 -81 12 -115 -15 -27 -68 -52 -99 -46 -30 7 -316 169 -347 199
-45 41 -34 116 20 149 17 10 40 19 52 19 11 0 92 -41 180 -91z m1597 57 c340
-102 589 -360 678 -704 12 -46 22 -128 26 -204 3 -71 8 -128 10 -128 2 0 25
11 51 24 206 104 493 89 707 -36 90 -53 210 -173 263 -263 103 -176 135 -402
82 -586 -6 -19 -10 -37 -10 -40 0 -4 30 -14 68 -23 181 -46 343 -175 420 -337
52 -109 67 -173 66 -289 0 -175 -60 -316 -189 -445 -60 -60 -99 -90 -155 -117
-148 -72 -55 -68 -1487 -68 -1255 0 -1292 1 -1369 20 -428 108 -675 551 -541
973 70 220 253 410 464 483 l51 18 -82 81 c-127 124 -210 260 -263 432 -25 81
-27 102 -27 263 -1 142 3 188 18 245 99 366 379 635 751 720 42 10 109 13 220
11 138 -3 172 -7 248 -30z m1282 19 c51 -25 68 -80 41 -133 -21 -41 -328 -216
-378 -217 -82 0 -125 103 -68 159 22 22 291 183 330 199 25 9 41 8 75 -8z
m-2920 -869 c63 -27 76 -106 26 -157 l-29 -29 -197 0 c-217 0 -243 6 -265 59
-21 51 8 115 60 134 8 3 95 6 193 6 132 1 186 -3 212 -13z m216 -725 c39 -40
40 -89 2 -130 -39 -41 -321 -201 -355 -201 -38 0 -74 18 -88 46 -16 30 -15 80
2 106 7 11 87 62 177 114 186 107 213 113 262 65z"/>
</g>
</svg>
